<?xml version="1.0" encoding="utf-8"?>
<!-- Designed by Vexels.com - 2020 All Rights Reserved - https://vexels.com/terms-and-conditions/  -->
<svg version="1.1" id="Capa_1" xmlns="http://www.w3.org/2000/svg" xmlns:xlink="http://www.w3.org/1999/xlink" x="0px" y="0px"
	 viewBox="0 0 1200 1200" enable-background="new 0 0 1200 1200" xml:space="preserve">
<g>
	<g>
		<g>
			<g>
				<g>
					<circle fill="#131428" cx="701.803" cy="526.56" r="20.443"/>
				</g>
				<g>
					<circle fill="#FFFFFF" cx="707.062" cy="518.947" r="5.258"/>
				</g>
			</g>
			<g>
				<g>
					<circle fill="#131428" cx="547.06" cy="526.56" r="20.443"/>
				</g>
				<g>
					<circle fill="#FFFFFF" cx="552.318" cy="518.947" r="5.258"/>
				</g>
			</g>
			<g>
				<defs>
					<path id="SVGID_1_" d="M654.471,562.604c-1.287-5.591-6.238-4.927-9.199-2.322c-4.976,4.376-11.373,8.651-18.334,8.837
						c-7.138,0.191-13.473-4.794-18.421-9.445c-2.874-2.701-7.8-3.529-9.271,2.017c-1.969,7.419,5.364,15.117,10.954,18.923
						c7.73,5.264,17.535,6.89,26.451,3.972C645.318,581.749,656.881,573.073,654.471,562.604z"/>
				</defs>
				<use xlink:href="#SVGID_1_"  overflow="visible" fill="#131428"/>
				<clipPath id="SVGID_2_">
					<use xlink:href="#SVGID_1_"  overflow="visible"/>
				</clipPath>
				<g clip-path="url(#SVGID_2_)">
					<g>
						
							<ellipse transform="matrix(0.0165 -0.9999 0.9999 0.0165 27.7989 1208.0394)" fill="#FF3333" cx="627.999" cy="589.888" rx="14.114" ry="20.456"/>
					</g>
				</g>
			</g>
		</g>
		<g>
			<ellipse fill="#FF3333" cx="723.269" cy="578.114" rx="32.308" ry="16.813"/>
		</g>
		<g>
			<ellipse fill="#FF3333" cx="522.948" cy="578.114" rx="32.308" ry="16.813"/>
		</g>
	</g>
	<g>
		<g>
			<g>
				<path fill="#FFFFFF" d="M753.979,92.305c-2.377,0-4.303-1.926-4.303-4.303v-33.7c0-2.377,1.926-4.303,4.303-4.303
					c2.377,0,4.303,1.926,4.303,4.303v33.7C758.282,90.379,756.356,92.305,753.979,92.305z"/>
			</g>
			<g>
				<path fill="#FFFFFF" d="M770.828,75.454h-33.7c-2.377,0-4.303-1.926-4.303-4.303c0-2.377,1.926-4.303,4.303-4.303h33.7
					c2.377,0,4.303,1.926,4.303,4.303C775.131,73.528,773.205,75.454,770.828,75.454z"/>
			</g>
		</g>
		<g>
			<g>
				<g>
					<g>
						<path fill="#131428" d="M876.798,1088.592c-15.683,3.45-31.467-5.967-35.697-21.634c-4.23-15.667,4.667-31.749,19.956-36.661
							L876.798,1088.592z"/>
					</g>
					<g>
						<path fill="#131428" d="M887.995,1130.061c-1.534,0.649-3.124,1.209-4.777,1.656c-19.594,5.291-39.768-6.304-45.059-25.899
							c-5.291-19.594,6.304-39.768,25.899-45.059c1.653-0.446,3.31-0.763,4.961-0.974L887.995,1130.061z"/>
					</g>
				</g>
				<g>
					<path fill="#131428" d="M850.451,1081.009c-48.093,0-96.582-29.991-129.343-80.995
						c-37.615-58.562-56.508-155.404,3.277-251.568l29.375,18.26c-43.547,70.046-44.874,150.276-3.55,214.614
						c28.331,44.115,71.629,69.409,110.334,64.461l4.391,34.308C860.122,1080.706,855.285,1081.009,850.451,1081.009z"/>
				</g>
			</g>
			<g>
				<path fill="#131428" d="M630.209,748.664l-10.543-26.823c197.284-77.527,220.437-251.308,220.647-253.052l28.617,3.453
					c-0.241,1.987-6.246,49.298-38.748,107.117C800.317,632.481,741.382,704.98,630.209,748.664z"/>
			</g>
			<g>
				<g>
					<g>
						<path fill="#131428" d="M487.275,1143.661c-1.618-15.977,9.557-30.568,25.608-32.963c16.05-2.395,30.998,8.299,34.114,24.052
							L487.275,1143.661z"/>
					</g>
					<g>
						<path fill="#131428" d="M444.791,1150c-0.468-1.598-0.841-3.243-1.094-4.937c-2.995-20.074,10.85-38.775,30.924-41.77
							c20.074-2.995,38.775,10.85,41.77,30.924c0.253,1.693,0.376,3.376,0.395,5.041L444.791,1150z"/>
					</g>
				</g>
				<g>
					<g>
						<path fill="#131428" d="M507.705,1137.341c-47.372-182.569,35.483-418.026,39.033-427.96l32.572,11.639
							c-0.833,2.333-82.801,235.468-38.126,407.631L507.705,1137.341z"/>
					</g>
				</g>
			</g>
			<path fill="#131428" d="M865.818,437.502l-1.287-0.272c-13.923-2.944-27.724,6.039-30.668,19.962l-3.247,15.356
				c-2.944,13.923,6.039,27.724,19.962,30.668l1.287,0.272c13.923,2.944,27.724-6.039,30.668-19.962l3.247-15.356
				C888.724,454.247,879.741,440.446,865.818,437.502z M362.746,475.847c-5.743-13.021-21.095-18.976-34.116-13.233l-1.203,0.531
				c-13.021,5.743-18.976,21.095-13.233,34.116l6.334,14.361c5.743,13.021,21.095,18.976,34.116,13.233l1.203-0.531
				c13.021-5.743,18.976-21.095,13.233-34.116L362.746,475.847z"/>
			<g>
				<path fill="#131428" d="M626.246,710.709c-2.002-0.035-49.679-1.156-110.524-27.56
					c-55.905-24.261-134.063-75.452-188.919-181.564l25.604-13.235c97.345,188.298,272.581,193.51,274.339,193.542L626.246,710.709z
					"/>
			</g>
			<g>
				<path fill="#FF3333" d="M775.127,986.38H470.54c-2.636,0-4.793-2.157-4.793-4.793V782.205c0-2.636,2.157-4.793,4.793-4.793
					h304.587c2.636,0,4.793,2.157,4.793,4.793v199.382C779.92,984.224,777.763,986.38,775.127,986.38z"/>
				<path fill="#131428" d="M762.625,997.188H483.042c-15.496,0-28.104-12.605-28.104-28.102V794.707
					c0-15.498,12.608-28.102,28.104-28.102h279.583c15.496,0,28.104,12.605,28.104,28.102v174.379
					C790.729,984.584,778.121,997.188,762.625,997.188z M483.042,788.219c-3.517,0-6.486,2.971-6.486,6.487v174.379
					c0,3.517,2.969,6.487,6.486,6.487h279.583c3.517,0,6.486-2.971,6.486-6.487V794.707c0-3.517-2.969-6.487-6.486-6.487H483.042z"
					/>
			</g>
			<g>
				<rect x="465.748" y="283.817" fill="#FF9900" width="314.172" height="570.698"/>
				<path fill="#131428" d="M779.92,865.324H465.747c-5.969,0-10.809-4.838-10.809-10.807V283.817
					c0-5.969,4.84-10.809,10.809-10.809H779.92c5.969,0,10.809,4.84,10.809,10.809v570.699
					C790.729,860.486,785.889,865.324,779.92,865.324z M476.556,843.709H769.11V294.627H476.556V843.709z"/>
			</g>
			<g>
				<path fill="#999999" d="M787.355,878.679H458.312c-1.465,0-2.652-1.188-2.652-2.652v-44.465c0-1.465,1.188-2.652,2.652-2.652
					h329.043c1.465,0,2.652,1.188,2.652,2.652v44.465C790.008,877.491,788.82,878.679,787.355,878.679z"/>
				<path fill="#131428" d="M780.436,889.487H465.231c-11.237,0-20.38-9.141-20.38-20.378v-30.629
					c0-11.237,9.143-20.378,20.38-20.378h315.205c11.237,0,20.382,9.141,20.382,20.378v30.629
					C800.818,880.346,791.673,889.487,780.436,889.487z M466.47,867.871h312.73v-28.155H466.47V867.871z"/>
			</g>
			<g>
				<path fill="#999999" d="M787.355,828.635H458.312c-1.465,0-2.652-1.188-2.652-2.652v-44.464c0-1.465,1.188-2.652,2.652-2.652
					h329.043c1.465,0,2.652,1.188,2.652,2.652v44.464C790.008,827.448,788.82,828.635,787.355,828.635z"/>
				<path fill="#131428" d="M780.436,839.441H465.231c-11.237,0-20.38-9.141-20.38-20.378v-30.625
					c0-11.237,9.143-20.378,20.38-20.378h315.205c11.237,0,20.382,9.141,20.382,20.378v30.625
					C800.818,830.301,791.673,839.441,780.436,839.441z M466.47,817.826h312.73v-28.152H466.47V817.826z"/>
			</g>
			<g>
				<path fill="#F9BB69" d="M622.937,88.002c0,0-155.467,188.433-155.559,188.985c-8.116,48.623,36.511,90.306,105.764,40.069
					c0,0,52.118,61.073,117.954-1.97c0,0,11.807,15.277,32.076,17.731c27.192,3.292,64.075-10.312,55.297-55.863
					C778.468,276.951,622.937,88.002,622.937,88.002z"/>
				<path fill="#131428" d="M630.205,354.434c-1.316,0-2.632-0.032-3.952-0.099c-25.449-1.283-44.631-14.795-54.323-23.336
					c-33.12,21.493-65.037,25.578-88.529,11.033c-20.835-12.897-31.307-39.128-26.684-66.826c0.504-3.038,0.504-3.038,26.658-34.847
					c14.589-17.744,34.035-41.354,53.476-64.946c38.88-47.18,77.749-94.29,77.749-94.29c2.053-2.49,5.111-3.931,8.337-3.931
					c0,0,0.004,0,0.007,0c3.228,0.002,6.286,1.448,8.337,3.94C787.589,271.024,787.589,271.024,788.137,272.12
					c0.44,0.883,0.759,1.822,0.946,2.789c5.076,26.344-3.607,42.328-11.785,51.097c-14.981,16.067-38.45,19.601-55.426,17.54
					c-13.831-1.674-24.399-8.188-31.084-13.676C671.272,346.19,650.945,354.434,630.205,354.434z M573.137,306.246
					c3.064,0,6.1,1.299,8.226,3.793c0.16,0.183,18.889,21.446,46.188,22.716c18.68,0.89,37.509-7.703,56.069-25.477
					c2.213-2.121,5.21-3.193,8.281-2.972c3.057,0.229,5.872,1.744,7.747,4.17c0.048,0.058,9.525,11.757,24.822,13.609
					c11.153,1.341,27.551-0.67,37.018-10.822c6.482-6.952,8.773-16.916,6.822-29.644C753.56,263.7,652.812,141.304,622.929,104.998
					c-43.701,52.975-131.963,160.027-145.271,176.428c-2.16,17.982,4.407,34.354,17.122,42.226
					c17.434,10.795,43.688,5.203,72.016-15.346C568.706,306.921,570.929,306.246,573.137,306.246z"/>
			</g>
			<g>
				<path fill="#131428" d="M688.711,179.766L622.459,99.28l-65.296,79.326C589.518,188.507,635.708,195.313,688.711,179.766z"/>
			</g>
			<g>
				<g>
					<path fill="#FFA826" d="M483.434,342.053c-2.431-1.505-4.705-3.208-6.847-5.056v431.081h89.953V334.367
						C535.378,352.878,505.641,355.793,483.434,342.053z"/>
				</g>
				<g>
					<rect x="466.5" y="839.734" fill="#DFDFDF" width="100.04" height="28.155"/>
				</g>
				<g>
					<rect x="466.5" y="789.693" fill="#DFDFDF" width="100.04" height="28.152"/>
				</g>
				<g>
					<path fill="#FFCF90" d="M477.689,281.447c-2.162,17.977,4.405,34.352,17.124,42.224c17.379,10.76,43.51,5.229,71.727-15.145
						l39.066-120.436l-39.066-6.837c-1.782-0.469-3.545-0.945-5.258-1.437C523.591,225.548,486.004,271.197,477.689,281.447z"/>
				</g>
				<g opacity="0.37">
					<path fill="#FF5757" d="M566.54,889.504h-89.953v79.652c0,3.517,2.97,6.489,6.486,6.489h3.429h80.038h47.571
						C575.918,964.908,566.54,889.504,566.54,889.504z"/>
				</g>
			</g>
			<g>
				<g>
					<g>
						<g>
							<circle fill="#131428" cx="701.803" cy="526.56" r="20.443"/>
						</g>
						<g>
							<circle fill="#FFFFFF" cx="707.062" cy="518.947" r="5.258"/>
						</g>
					</g>
					<g>
						<g>
							<circle fill="#131428" cx="547.06" cy="526.56" r="20.443"/>
						</g>
						<g>
							<circle fill="#FFFFFF" cx="552.318" cy="518.947" r="5.258"/>
						</g>
					</g>
					<g>
						<defs>
							<path id="SVGID_3_" d="M654.471,562.604c-1.287-5.591-6.238-4.927-9.199-2.322c-4.976,4.376-11.373,8.651-18.334,8.837
								c-7.138,0.191-13.473-4.794-18.421-9.445c-2.874-2.701-7.8-3.529-9.271,2.017c-1.969,7.419,5.364,15.117,10.954,18.923
								c7.73,5.264,17.535,6.89,26.451,3.972C645.318,581.749,656.881,573.073,654.471,562.604z"/>
						</defs>
						<use xlink:href="#SVGID_3_"  overflow="visible" fill="#131428"/>
						<clipPath id="SVGID_4_">
							<use xlink:href="#SVGID_3_"  overflow="visible"/>
						</clipPath>
						<g clip-path="url(#SVGID_4_)">
							<g>
								
									<ellipse transform="matrix(0.0165 -0.9999 0.9999 0.0165 27.7989 1208.0394)" fill="#FF3333" cx="627.999" cy="589.888" rx="14.114" ry="20.456"/>
							</g>
						</g>
					</g>
				</g>
				<g>
					<ellipse fill="#FF3333" cx="723.269" cy="578.114" rx="32.308" ry="16.813"/>
				</g>
				<g>
					<ellipse fill="#FF3333" cx="522.948" cy="578.114" rx="32.308" ry="16.813"/>
				</g>
			</g>
		</g>
		<g>
			<g>
				<path fill="#FFFFFF" d="M364.998,289.35c-0.035,0-0.07-0.002-0.107-0.002c-2.375-0.058-4.253-2.031-4.195-4.407l0.825-33.689
					c0.058-2.373,1.938-4.303,4.407-4.195c2.375,0.058,4.253,2.031,4.195,4.407l-0.825,33.689
					C369.239,287.491,367.325,289.35,364.998,289.35z"/>
			</g>
			<g>
				<path fill="#FFFFFF" d="M382.256,272.918c-0.035,0-0.07-0.002-0.107-0.002l-33.689-0.826c-2.375-0.058-4.253-2.031-4.195-4.407
					c0.058-2.34,1.972-4.197,4.299-4.197c0.035,0,0.07,0.002,0.107,0.002l33.689,0.826c2.375,0.058,4.253,2.031,4.195,4.407
					C386.497,271.061,384.583,272.918,382.256,272.918z"/>
			</g>
		</g>
		<g>
			<g>
				<path fill="#FFFFFF" d="M669.63,154.208c-0.035,0-0.07-0.002-0.107-0.002c-2.375-0.058-4.253-2.031-4.195-4.407l0.826-33.689
					c0.058-2.375,1.859-4.19,4.406-4.195c2.375,0.058,4.253,2.031,4.195,4.407l-0.826,33.689
					C673.871,152.351,671.957,154.208,669.63,154.208z"/>
			</g>
			<g>
				<path fill="#FFFFFF" d="M686.888,137.776c-0.035,0-0.07-0.002-0.107-0.002l-33.689-0.826c-2.375-0.058-4.253-2.031-4.195-4.407
					c0.058-2.377,1.869-4.2,4.406-4.195l33.689,0.826c2.375,0.058,4.253,2.031,4.195,4.407
					C691.128,135.919,689.215,137.776,686.888,137.776z"/>
			</g>
		</g>
		<g>
			<g>
				<path fill="#FFFFFF" d="M753.979,92.305c-2.377,0-4.303-1.926-4.303-4.303v-33.7c0-2.377,1.926-4.303,4.303-4.303
					c2.377,0,4.303,1.926,4.303,4.303v33.7C758.282,90.379,756.356,92.305,753.979,92.305z"/>
			</g>
			<g>
				<path fill="#FFFFFF" d="M770.828,75.454h-33.7c-2.377,0-4.303-1.926-4.303-4.303c0-2.377,1.926-4.303,4.303-4.303h33.7
					c2.377,0,4.303,1.926,4.303,4.303C775.131,73.528,773.205,75.454,770.828,75.454z"/>
			</g>
		</g>
		<g>
			<g>
				<path fill="#FFFFFF" d="M841.733,216.359c-15.11,0-27.405-12.295-27.405-27.405c0-15.11,12.295-27.405,27.405-27.405
					s27.405,12.295,27.405,27.405C869.137,204.065,856.843,216.359,841.733,216.359z M841.733,170.155
					c-10.367,0-18.8,8.432-18.8,18.8c0,10.367,8.432,18.8,18.8,18.8s18.799-8.432,18.799-18.8
					C860.532,178.587,852.1,170.155,841.733,170.155z"/>
			</g>
		</g>
		<g>
			<g>
				<path fill="#FFFFFF" d="M482.683,120.26c-11.569,0-20.979-9.412-20.979-20.981s9.41-20.979,20.979-20.979
					c11.569,0,20.979,9.41,20.979,20.979S494.251,120.26,482.683,120.26z M482.683,86.387c-7.108,0-12.892,5.784-12.892,12.892
					c0,7.109,5.784,12.894,12.892,12.894c7.108,0,12.892-5.784,12.892-12.894C495.574,92.171,489.79,86.387,482.683,86.387z"/>
			</g>
		</g>
		<g>
			<g>
				<path fill="#FFFFFF" d="M365.408,407.334c-11.569,0-20.979-9.412-20.979-20.981c0-11.569,9.41-20.981,20.979-20.981
					s20.979,9.412,20.979,20.981C386.387,397.922,376.977,407.334,365.408,407.334z M365.408,373.46
					c-7.108,0-12.892,5.784-12.892,12.894c0,7.108,5.784,12.89,12.892,12.89c7.108,0,12.892-5.783,12.892-12.89
					C378.3,379.244,372.516,373.46,365.408,373.46z"/>
			</g>
		</g>
		<g opacity="0.5">
			<g>
				<path fill="#FF9900" d="M769.254,333.007c-14.488,10.039-33.103,12.225-47.239,10.52c-8.78-1.063-16.232-4.08-22.223-7.543
					v432.055h69.462V333.007z"/>
			</g>
			<g>
				<path fill="#F9BB69" d="M635.201,188.641l64.591,119.813c0.047,0.058,9.524,11.759,24.822,13.611
					c11.167,1.351,27.555-0.674,37.018-10.825c6.482-6.952,8.771-16.916,6.82-29.644c-8.656-10.517-46.896-56.974-83.067-100.917
					C667.784,185.547,650.983,187.94,635.201,188.641z"/>
			</g>
		</g>
		<g opacity="0.5">
			<g>
				<path fill="#FF3333" d="M686.626,889.558c-0.341,0.929-1.072,86.086-1.072,86.086h77.103c3.516,0,6.486-2.97,6.486-6.485
					v-79.602H686.626z"/>
			</g>
			<g>
				<path fill="#999999" d="M779.23,839.788h-80.402c-1.258,9.031-3.046,18.505-5.515,28.155h85.917V839.788z"/>
			</g>
			<g>
				<path fill="#999999" d="M701.009,817.899h78.221v-28.152h-77.817C701.675,797.527,701.672,807.121,701.009,817.899z"/>
			</g>
		</g>
		<g>
			<path fill="#FFFFFF" d="M505.372,282.616c-1.006,0-2.017-0.352-2.833-1.068c-1.787-1.565-1.966-4.283-0.4-6.07l70.094-79.98
				c1.561-1.788,4.281-1.968,6.07-0.4c1.787,1.565,1.966,4.283,0.4,6.07l-70.094,79.98
				C507.76,282.119,506.569,282.616,505.372,282.616z"/>
		</g>
		<g>
			<g>
				<path fill="#FFFFFF" d="M495.529,717.782c-3.985,0-7.217-3.231-7.217-7.217v-82.676c0-3.985,3.231-7.217,7.217-7.217
					c3.985,0,7.217,3.231,7.217,7.217v82.676C502.745,714.55,499.514,717.782,495.529,717.782z"/>
			</g>
			<g>
				<circle fill="#FFFFFF" cx="495.529" cy="738.862" r="10.464"/>
			</g>
		</g>
	</g>
</g>
</svg>
